<svg id="Grupo_199" data-name="Grupo 199" xmlns="http://www.w3.org/2000/svg" xmlns:xlink="http://www.w3.org/1999/xlink" width="200" height="61.971" viewBox="0 0 200 61.971">
  <defs>
    <clipPath id="clip-path">
      <rect id="Rectángulo_66" data-name="Rectángulo 66" width="200" height="61.971" fill="none"/>
    </clipPath>
  </defs>
  <g id="Grupo_34" data-name="Grupo 34" clip-path="url(#clip-path)">
    <path id="Trazado_27" data-name="Trazado 27" d="M510.892,129.829a.616.616,0,0,1,.616-.616h9.736a16.752,16.752,0,0,1,7.567,1.581,11.052,11.052,0,0,1,4.838,4.593,14.578,14.578,0,0,1,1.675,7.19,14.79,14.79,0,0,1-1.656,7.228,11.047,11.047,0,0,1-4.818,4.612,16.676,16.676,0,0,1-7.6,1.6h-9.736a.616.616,0,0,1-.616-.616Zm9.976,21.444q8.583,0,8.583-8.7,0-8.62-8.583-8.621h-3.487a.616.616,0,0,0-.616.616v16.084a.616.616,0,0,0,.616.616Z" transform="translate(-447.06 -113.069)" fill="#351f65"/>
    <path id="Trazado_28" data-name="Trazado 28" d="M748.771,188.169v17.854a.616.616,0,0,1-.616.616h-4.376a.616.616,0,0,1-.616-.616v-2.207a6.008,6.008,0,0,1-2.447,2.3,7.6,7.6,0,0,1-3.576.828,8.013,8.013,0,0,1-4.386-1.2,8.1,8.1,0,0,1-2.974-3.445,11.847,11.847,0,0,1-1.073-5.176,12.224,12.224,0,0,1,1.073-5.233,8.384,8.384,0,0,1,2.993-3.557,7.775,7.775,0,0,1,4.367-1.261,7.326,7.326,0,0,1,3.576.866,6.271,6.271,0,0,1,2.447,2.334v-2.094a.616.616,0,0,1,.616-.616h4.376a.616.616,0,0,1,.616.616m-6.739,13.011a6.563,6.563,0,0,0,1.129-4.141,6.648,6.648,0,0,0-1.129-4.16,3.863,3.863,0,0,0-3.238-1.449,3.906,3.906,0,0,0-3.275,1.506,6.671,6.671,0,0,0-1.167,4.179A6.333,6.333,0,0,0,735.5,201.2a4,4,0,0,0,3.294,1.412,3.882,3.882,0,0,0,3.238-1.431" transform="translate(-637.66 -163.691)" fill="#351f65"/>
    <path id="Trazado_29" data-name="Trazado 29" d="M1090.827,152.558v7.416a2.942,2.942,0,0,0,.828,2.315,3.113,3.113,0,0,0,2.146.734l1.265,0a.618.618,0,0,1,.618.616v3.088a.62.62,0,0,1-.441.591,9.668,9.668,0,0,1-2.835.374,7.032,7.032,0,0,1-5.4-2,7.9,7.9,0,0,1-1.863-5.609v-7.529h-3a.616.616,0,0,1-.616-.616V148.92a.616.616,0,0,1,.616-.616h3v-4.032a.616.616,0,0,1,.426-.586l4.452-1.445a.616.616,0,0,1,.807.586V148.3h4.24a.616.616,0,0,1,.617.616v3.021a.616.616,0,0,1-.617.616Z" transform="translate(-946.4 -124.443)" fill="#351f65"/>
    <path id="Trazado_30" data-name="Trazado 30" d="M1217.128,119.269h4.828a.616.616,0,0,1,.616.616V124a.616.616,0,0,1-.616.616h-4.828a.616.616,0,0,1-.616-.616v-4.113a.616.616,0,0,1,.616-.616m-.428,27.43V128.845a.616.616,0,0,1,.616-.616h4.452a.616.616,0,0,1,.616.616V146.7a.616.616,0,0,1-.616.616h-4.452a.616.616,0,0,1-.616-.616" transform="translate(-1064.519 -104.367)" fill="#351f65"/>
    <path id="Trazado_31" data-name="Trazado 31" d="M1291.748,204.3a9.676,9.676,0,0,1-2.654-7.19,10.536,10.536,0,0,1,1.28-5.252,8.953,8.953,0,0,1,3.6-3.539,11.04,11.04,0,0,1,5.364-1.261,12.89,12.89,0,0,1,4.028.64,8.722,8.722,0,0,1,2.79,1.441.611.611,0,0,1,.181.693l-1.065,2.8a.617.617,0,0,1-.921.29,9.032,9.032,0,0,0-1.851-.947,7.485,7.485,0,0,0-2.635-.508,4.689,4.689,0,0,0-3.633,1.412,5.885,5.885,0,0,0-1.3,4.122,6,6,0,0,0,1.28,4.16,4.678,4.678,0,0,0,3.652,1.412,7.484,7.484,0,0,0,2.635-.508,9.024,9.024,0,0,0,1.851-.947.617.617,0,0,1,.921.29l1.06,2.784a.612.612,0,0,1-.194.7,9.227,9.227,0,0,1-2.885,1.424,13.98,13.98,0,0,1-4.178.621,9.935,9.935,0,0,1-7.322-2.635" transform="translate(-1128.033 -163.691)" fill="#351f65"/>
    <path id="Trazado_32" data-name="Trazado 32" d="M1445.178,205.735a8.316,8.316,0,0,1-3.5-3.463,11.963,11.963,0,0,1,0-10.541,8.319,8.319,0,0,1,3.5-3.463,11.235,11.235,0,0,1,5.327-1.2,11.04,11.04,0,0,1,5.27,1.2,8.351,8.351,0,0,1,3.482,3.463,11.964,11.964,0,0,1,0,10.541,8.348,8.348,0,0,1-3.482,3.463,11.033,11.033,0,0,1-5.27,1.2,11.228,11.228,0,0,1-5.327-1.2m8.546-4.518a8.523,8.523,0,0,0,0-8.414,3.851,3.851,0,0,0-3.219-1.412,3.947,3.947,0,0,0-3.275,1.412,6.62,6.62,0,0,0-1.129,4.2q0,5.61,4.4,5.609a3.873,3.873,0,0,0,3.219-1.393" transform="translate(-1260.481 -163.691)" fill="#351f65"/>
    <path id="Trazado_33" data-name="Trazado 33" d="M964.6,209.7a1.849,1.849,0,0,0,1.39.63h4.777a.616.616,0,0,0,.466-1.02l-7.345-8.473a.616.616,0,0,1,0-.812l6.829-7.719a.616.616,0,0,0-.462-1.025h-4.607a1.849,1.849,0,0,0-1.391.631l-7.3,8.228a.616.616,0,0,0,0,.815Z" transform="translate(-837.256 -167.382)" fill="#f4364c"/>
    <path id="Trazado_34" data-name="Trazado 34" d="M923.144,140.314a.616.616,0,0,1,0-.815l.718-.809V122.6a.616.616,0,0,0-.616-.616h-4.468a.616.616,0,0,0-.616.616v26.474a.616.616,0,0,0,.616.616h4.468a.618.618,0,0,0,.616-.616v-7.934Z" transform="translate(-803.448 -106.741)" fill="#351f65"/>
    <path id="Trazado_35" data-name="Trazado 35" d="M127.348,329.2c-6.7,3.219-11.221,3.823-14.232,2.761,2.936,4.318,8.305,5.316,18.365-1.78A67.376,67.376,0,0,0,146.2,312.422c-6.454,8.608-15.644,15.1-18.857,16.78" transform="translate(-98.983 -273.387)" fill="#93328e"/>
    <path id="Trazado_36" data-name="Trazado 36" d="M9.988,72.55c-.418-6.9-7.744-15.532-6.006-21.766A9.985,9.985,0,0,0,2.117,52.23c-7.05,7.31,5.6,16.441,7.545,24.7.02.085.039.175.058.265a30.311,30.311,0,0,0,.267-4.649" transform="translate(0 -44.439)" fill="#93328e"/>
    <path id="Trazado_37" data-name="Trazado 37" d="M79.625,17.821c1.693,7.057-.776,14.614-4.509,21.213C79.263,33.5,82.281,27.1,81.857,20.54,80.774,3.774,44.5-4.532,34.649,2.518a7.056,7.056,0,0,0-2.773,3.827C42.938-.448,75.942,2.466,79.625,17.821" transform="translate(-27.893 0)" fill="#f4364c"/>
    <path id="Trazado_38" data-name="Trazado 38" d="M74.069,288.02c-4.425-6.507-3.323-20.554-4.412-25.816-.952,8.647-3.52,23.018,4.412,25.816" transform="translate(-59.936 -229.444)" fill="#f4364c"/>
    <path id="Trazado_39" data-name="Trazado 39" d="M54.392,76.048c3.213-1.678,12.4-8.173,18.857-16.78,3.734-6.6,6.2-14.156,4.509-21.213C74.075,22.7,41.071,19.786,30.01,26.578c-1.739,6.234,5.588,14.867,6.006,21.766a30.314,30.314,0,0,1-.267,4.649c1.089,5.262-.013,19.309,4.412,25.816,3.011,1.062,7.533.458,14.232-2.761" transform="translate(-26.027 -20.233)" fill="#351f65"/>
    <path id="Trazado_40" data-name="Trazado 40" d="M236.718,215.915a4.623,4.623,0,1,0-4.473,4.677,4.586,4.586,0,0,0,4.473-4.677" transform="translate(-199.055 -185.095)" fill="#fff"/>
    <path id="Trazado_41" data-name="Trazado 41" d="M207.4,97.107l-.591-2a1.224,1.224,0,0,0-1.511-.816l-2.417.688a1.194,1.194,0,0,0-.832,1.483l.591,2,3.07,1.659Z" transform="translate(-176.758 -82.467)" fill="#fff"/>
    <path id="Trazado_42" data-name="Trazado 42" d="M220.217,151.253l.591,2a1.224,1.224,0,0,0,1.511.816l2.417-.688a1.194,1.194,0,0,0,.832-1.483l-.591-2-3.07-1.659Z" transform="translate(-192.703 -129.719)" fill="#fff"/>
    <path id="Trazado_43" data-name="Trazado 43" d="M239.334,119.917l2.039-.58a1.194,1.194,0,0,0,.832-1.483l-.7-2.372a1.224,1.224,0,0,0-1.511-.816l-2.039.58-1.69,3.013Z" transform="translate(-206.744 -100.297)" fill="#fff"/>
    <path id="Trazado_44" data-name="Trazado 44" d="M184.151,132.5l-2.039.58a1.194,1.194,0,0,0-.832,1.483l.7,2.372a1.224,1.224,0,0,0,1.511.816l2.039-.58,1.69-3.013Z" transform="translate(-158.588 -115.942)" fill="#fff"/>
  </g>
</svg>
