<svg xmlns="http://www.w3.org/2000/svg" width="53.526" height="43" viewBox="0 0 53.526 43">
  <g id="Grupo_196" data-name="Grupo 196" transform="translate(-727 455)">
    <g id="Grupo_192" data-name="Grupo 192" transform="translate(95 -2366)">
      <path id="Trazado_64" data-name="Trazado 64" d="M118.859,64.375h-18.3V51.107a45.012,45.012,0,0,1,1.4-12.611,19.441,19.441,0,0,1,5.209-8.309,26.463,26.463,0,0,1,9.6-5.813l3.581,7.685q-5.469,1.839-7.846,5.123a14.9,14.9,0,0,0-2.442,8.736h8.79Zm30.732,0h-18.3V51.107A46.03,46.03,0,0,1,132.662,38.5a19.159,19.159,0,0,1,5.176-8.309,26.387,26.387,0,0,1,9.669-5.813l3.581,7.685q-5.534,1.839-7.878,5.123a15.393,15.393,0,0,0-2.474,8.736h8.855Z" transform="translate(534.438 1889.625)" fill="#9a8fb2"/>
    </g>
    <path id="Trazado_79316" data-name="Trazado 79316" d="M118.859,64.375h-18.3V51.107a45.012,45.012,0,0,1,1.4-12.611,19.441,19.441,0,0,1,5.209-8.309,26.463,26.463,0,0,1,9.6-5.813l3.581,7.685q-5.469,1.839-7.846,5.123a14.9,14.9,0,0,0-2.442,8.736h8.79Zm30.732,0h-18.3V51.107A46.03,46.03,0,0,1,132.662,38.5a19.159,19.159,0,0,1,5.176-8.309,26.387,26.387,0,0,1,9.669-5.813l3.581,7.685q-5.534,1.839-7.878,5.123a15.393,15.393,0,0,0-2.474,8.736h8.855Z" transform="translate(626.438 -479.375)" fill="#ded5f2"/>
  </g>
</svg>
