<svg xmlns="http://www.w3.org/2000/svg" width="189.583" height="100" viewBox="0 0 189.583 100">
  <g id="Grupo_191" data-name="Grupo 191" transform="translate(-622 -1206)">
    <path id="Trazado_45" data-name="Trazado 45" d="M83.642,25.84a6.33,6.33,0,0,0-7.627,8.411l4.466,11.271a2.346,2.346,0,0,1-.235,2.182l-6.77,10.062a6.207,6.207,0,0,0-.86,5.176,6.361,6.361,0,0,0,3.391,4.071,6.29,6.29,0,0,0,3.127.593l12.119-.758a2.371,2.371,0,0,1,2.008.9l7.5,9.537a6.341,6.341,0,0,0,11.126-2.331L114.9,63.215a2.361,2.361,0,0,1,1.477-1.63l11.4-4.168a6.3,6.3,0,0,0,3.578-8.557c-10.35-7.883-25.114-15.441-41.113-21.143Z" transform="translate(679.64 1226.29)" fill="#9a8fb2"/>
    <path id="Trazado_46" data-name="Trazado 46" d="M107.242,27.566a9.053,9.053,0,0,0,.785-.835c-12.642-3.447-25.442-5.538-36.949-5.538-11.961,0-25.491,2.243-38.886,5.905L42.31,37.421a3.169,3.169,0,0,1,.846,2.832L40.009,56.264A8.453,8.453,0,0,0,41.775,63.3a8.5,8.5,0,0,0,10.4,2.237l14.649-7.25a3.194,3.194,0,0,1,2.96.074l14.289,7.935a8.458,8.458,0,0,0,4.144,1.088A8.587,8.587,0,0,0,94.7,64.4a8.37,8.37,0,0,0,1.963-6.787L94.282,41.465a3.177,3.177,0,0,1,.984-2.788Z" transform="translate(647.633 1222.8)" fill="#9a8fb2"/>
    <path id="Trazado_47" data-name="Trazado 47" d="M23.493,79.063a6.308,6.308,0,0,0,7.688-1.82l7.5-9.537a2.371,2.371,0,0,1,2.008-.9l12.121.758a6.287,6.287,0,0,0,3.126-.593A6.361,6.361,0,0,0,59.324,62.9a6.2,6.2,0,0,0-.86-5.176l-6.77-10.062a2.357,2.357,0,0,1-.235-2.182l4.466-11.271A6.248,6.248,0,0,0,50.7,25.647C31.1,31.762,12.472,40.682.239,49.872a6.175,6.175,0,0,0,3.916,7.506l11.4,4.168a2.364,2.364,0,0,1,1.475,1.628l3.021,11.739a6.3,6.3,0,0,0,3.438,4.15" transform="translate(622.003 1226.33)" fill="#9a8fb2"/>
    <path id="Trazado_48" data-name="Trazado 48" d="M89.882,78.7a8.458,8.458,0,0,1-4.144-1.088L71.449,69.681a3.194,3.194,0,0,0-2.96-.073L53.84,76.857a8.526,8.526,0,0,1-12.166-9.27l3.147-16.011a3.169,3.169,0,0,0-.846-2.832L32.54,37.077a8.513,8.513,0,0,1,5.074-14.41l16.233-1.961a3.184,3.184,0,0,0,2.436-1.68L63.865,4.57a8.54,8.54,0,0,1,15.3.362l6.885,14.8A3.18,3.18,0,0,0,88.4,21.525l16.122,2.73a8.51,8.51,0,0,1,4.381,14.634L96.931,50a3.163,3.163,0,0,0-.981,2.788l2.38,16.143a8.36,8.36,0,0,1-1.963,6.789A8.582,8.582,0,0,1,89.882,78.7" transform="translate(645.967 1206)" fill="#e07906"/>
    <path id="Trazado_49" data-name="Trazado 49" d="M87.644,23l16.535,2.8a5.993,5.993,0,0,1,3.084,10.3L94.98,47.5a5.981,5.981,0,0,0-1.854,5.265l2.441,16.557A6.007,6.007,0,0,1,86.7,75.438L72.047,67.3a6.02,6.02,0,0,0-5.59-.133L51.431,74.6a6.005,6.005,0,0,1-8.565-6.525l3.226-16.425a5.988,5.988,0,0,0-1.6-5.348L32.764,34.339a5.993,5.993,0,0,1,3.573-10.145l16.65-2.013a6,6,0,0,0,4.6-3.171L65.365,4.18a6.013,6.013,0,0,1,10.772.256L83.2,19.617A6.006,6.006,0,0,0,87.644,23" transform="translate(646.72 1206.765)" fill="#ffc800"/>
    <path id="Trazado_50" data-name="Trazado 50" d="M80.29,23.443l15.926,2.7a3.6,3.6,0,0,1,1.85,6.185L86.235,43.3a3.6,3.6,0,0,0-1.114,3.161l2.351,15.948a3.6,3.6,0,0,1-5.321,3.67l-14.115-7.84a3.612,3.612,0,0,0-3.355-.079l-14.471,7.16A3.6,3.6,0,0,1,45.07,61.4l3.108-15.819a3.593,3.593,0,0,0-.961-3.211L35.922,30.848a3.6,3.6,0,0,1,2.145-6.09L54.1,22.82a3.6,3.6,0,0,0,2.761-1.9L64.355,6.634a3.609,3.609,0,0,1,6.465.154l6.8,14.621A3.606,3.606,0,0,0,80.29,23.443Z" transform="translate(649.781 1209.73)" fill="none" stroke="#fdfa91" stroke-miterlimit="10" stroke-width="0.75"/>
    <path id="Trazado_51" data-name="Trazado 51" d="M85.765,23a6.006,6.006,0,0,1-4.444-3.386L74.258,4.436A6.013,6.013,0,0,0,63.485,4.18L55.708,19.009a6,6,0,0,1-4.6,3.171l-16.65,2.013a5.86,5.86,0,0,0-1.053.283c4.78.688,16.558.794,20.679-1.085,3.456-1.578,9.283-14.881,11.06-17.64s5.43-4.041,7.6,0S78.276,20.337,81.24,22.8c3.2,2.662,13.23,2.467,22.673,3.521A6.02,6.02,0,0,0,102.3,25.8Z" transform="translate(648.599 1206.765)" fill="#fff"/>
    <path id="Trazado_52" data-name="Trazado 52" d="M107.074,22.285a6.132,6.132,0,0,0,.975-1.206C102.07,25.646,92.533,33,91.394,34.289c-1.669,1.888-.366,5.991.476,11.142,1.326,8.09,1.3,10.077-1.256,12.3s-7.569,0-12.464-3.11S70.024,48.842,67.8,50.174,56.556,55.4,52.66,57.4s-8.459-1.111-7.347-6.221,3.339-16.885,2-18.219C46.191,31.835,34.866,21.627,31.284,18.4a5.875,5.875,0,0,0,1.292,2.115L44.3,32.48a5.99,5.99,0,0,1,1.6,5.348L42.678,54.253a6,6,0,0,0,8.565,6.525l15.022-7.433a6.022,6.022,0,0,1,5.594.133L86.51,61.615A6.006,6.006,0,0,0,95.377,55.5L92.934,38.945a5.992,5.992,0,0,1,1.854-5.265Z" transform="translate(646.91 1220.588)" fill="#ffca02"/>
    <path id="Trazado_53" data-name="Trazado 53" d="M55.938,66.643a6.287,6.287,0,0,1-3.126.593L40.691,66.48a2.362,2.362,0,0,0-1.168.226,2.336,2.336,0,0,0-.841.67l-7.5,9.535a6.267,6.267,0,0,1-2.256,1.814,6.352,6.352,0,0,1-8.87-4.145L17.038,62.844a2.353,2.353,0,0,0-1.475-1.628l-11.4-4.17a6.32,6.32,0,0,1-1.216-11.28l10.251-6.5a2.361,2.361,0,0,0,1.1-1.9l.449-12.112A6.338,6.338,0,0,1,25.11,20.615l9.359,7.723a2.366,2.366,0,0,0,2.15.45L48.3,25.47a6.331,6.331,0,0,1,7.627,8.411L51.463,45.154a2.347,2.347,0,0,0,.235,2.182L58.469,57.4a6.21,6.21,0,0,1,.86,5.177,6.358,6.358,0,0,1-3.391,4.069" transform="translate(622 1221.183)" fill="#e07906"/>
    <path id="Trazado_54" data-name="Trazado 54" d="M36.778,29.7l11.979-3.4a4.456,4.456,0,0,1,5.371,5.921L49.548,43.78a4.445,4.445,0,0,0,.444,4.121l6.944,10.319a4.455,4.455,0,0,1-3.984,6.929L40.52,64.372a4.466,4.466,0,0,0-3.788,1.7l-7.69,9.779a4.464,4.464,0,0,1-7.832-1.64l-3.1-12.038a4.457,4.457,0,0,0-2.786-3.075l-11.7-4.276a4.449,4.449,0,0,1-.857-7.942l10.514-6.663a4.451,4.451,0,0,0,2.068-3.594L15.81,24.2a4.464,4.464,0,0,1,7.3-3.268l9.6,7.92a4.469,4.469,0,0,0,4.065.852" transform="translate(622.555 1221.775)" fill="#ffc800"/>
    <path id="Trazado_55" data-name="Trazado 55" d="M32.7,31.278,44.238,28a2.675,2.675,0,0,1,3.223,3.555L43.049,42.69a2.666,2.666,0,0,0,.266,2.472L50,55.1a2.672,2.672,0,0,1-2.391,4.157l-11.972-.748a2.677,2.677,0,0,0-2.276,1.018l-7.4,9.419a2.682,2.682,0,0,1-4.7-.984l-2.985-11.6A2.678,2.678,0,0,0,16.6,54.524L5.333,50.406a2.671,2.671,0,0,1-.514-4.767l10.127-6.418a2.67,2.67,0,0,0,1.239-2.157L16.631,25.1a2.679,2.679,0,0,1,4.383-1.961l9.245,7.63A2.682,2.682,0,0,0,32.7,31.278Z" transform="translate(624.847 1223.851)" fill="none" stroke="#fdfa91" stroke-miterlimit="10" stroke-width="0.557"/>
    <path id="Trazado_56" data-name="Trazado 56" d="M36.133,29.7a4.469,4.469,0,0,1-4.065-.852l-9.6-7.92a4.464,4.464,0,0,0-7.3,3.266l-.46,12.423a4.446,4.446,0,0,1-2.068,3.594L2.124,46.877a4.407,4.407,0,0,0-.616.527c3.425-1.063,11.354-4.752,13.513-7.329,1.812-2.16,1.453-12.938,1.76-15.355s2.344-4.442,5.1-2.427,8.381,8.01,11.157,8.716c3,.764,9.66-2.571,16.326-4.878a4.5,4.5,0,0,0-1.248.169Z" transform="translate(623.201 1221.775)" fill="#fff"/>
    <path id="Trazado_57" data-name="Trazado 57" d="M53.516,27.268a4.572,4.572,0,0,0,.266-1.12c-2.542,4.971-6.578,12.947-6.93,14.171-.514,1.8,1.676,4.134,3.891,7.316,3.481,5,4.1,6.337,3.1,8.644S48.77,58.7,44.492,58.175s-7.3-1.278-8.363.326-5.863,7.088-7.834,9.673-6.026,1.956-6.917-1.825S18.2,53.965,16.881,53.5C15.767,53.1,4.905,49.88,1.469,48.86a4.345,4.345,0,0,0,1.543,1.006l11.7,4.276A4.463,4.463,0,0,1,17.5,57.216l3.1,12.04a4.466,4.466,0,0,0,7.834,1.639l7.686-9.779a4.475,4.475,0,0,1,3.792-1.7l12.43.778a4.454,4.454,0,0,0,3.982-6.929L49.377,42.949a4.445,4.445,0,0,1-.445-4.121Z" transform="translate(623.17 1226.728)" fill="#ffca02"/>
    <path id="Trazado_58" data-name="Trazado 58" d="M76.006,66.643a6.287,6.287,0,0,0,3.126.593l12.121-.757a2.362,2.362,0,0,1,1.168.226,2.336,2.336,0,0,1,.841.67l7.5,9.535a6.267,6.267,0,0,0,2.256,1.814,6.352,6.352,0,0,0,8.87-4.145l3.023-11.737a2.352,2.352,0,0,1,1.475-1.628l11.4-4.17A6.32,6.32,0,0,0,129,45.767l-10.251-6.5a2.357,2.357,0,0,1-1.1-1.9l-.449-12.112a6.338,6.338,0,0,0-10.372-4.641l-9.359,7.723a2.366,2.366,0,0,1-2.15.45L83.642,25.47a6.331,6.331,0,0,0-7.627,8.411l4.466,11.273a2.352,2.352,0,0,1-.235,2.182L73.475,57.4a6.21,6.21,0,0,0-.86,5.177,6.358,6.358,0,0,0,3.391,4.069" transform="translate(679.64 1221.183)" fill="#e07906"/>
    <path id="Trazado_59" data-name="Trazado 59" d="M94.035,29.7,82.054,26.3a4.456,4.456,0,0,0-5.369,5.921l4.58,11.559a4.445,4.445,0,0,1-.444,4.121L73.877,58.221a4.455,4.455,0,0,0,3.984,6.929l12.432-.778a4.469,4.469,0,0,1,3.788,1.7l7.69,9.779a4.464,4.464,0,0,0,7.832-1.64l3.1-12.038a4.457,4.457,0,0,1,2.786-3.075l11.7-4.276a4.449,4.449,0,0,0,.857-7.942L117.53,40.213a4.446,4.446,0,0,1-2.068-3.594L115,24.2a4.464,4.464,0,0,0-7.3-3.268l-9.6,7.92a4.469,4.469,0,0,1-4.065.852" transform="translate(680.215 1221.775)" fill="#ffc800"/>
    <path id="Trazado_60" data-name="Trazado 60" d="M93.629,31.278,82.089,28a2.675,2.675,0,0,0-3.223,3.555L83.279,42.69a2.666,2.666,0,0,1-.266,2.472L76.325,55.1a2.672,2.672,0,0,0,2.391,4.157l11.972-.748a2.677,2.677,0,0,1,2.276,1.018l7.4,9.419a2.682,2.682,0,0,0,4.7-.984l2.985-11.6a2.681,2.681,0,0,1,1.674-1.845l11.264-4.118a2.671,2.671,0,0,0,.514-4.767l-10.127-6.418a2.677,2.677,0,0,1-1.241-2.157L109.7,25.1a2.68,2.68,0,0,0-4.385-1.961l-9.245,7.63A2.682,2.682,0,0,1,93.629,31.278Z" transform="translate(682.409 1223.851)" fill="none" stroke="#fdfa91" stroke-miterlimit="10" stroke-width="0.557"/>
    <path id="Trazado_61" data-name="Trazado 61" d="M90.623,29.7a4.469,4.469,0,0,0,4.065-.852l9.6-7.92a4.464,4.464,0,0,1,7.3,3.266l.46,12.423a4.446,4.446,0,0,0,2.067,3.594l10.514,6.663a4.409,4.409,0,0,1,.616.527c-3.426-1.063-11.354-4.752-13.513-7.329-1.812-2.16-1.453-12.938-1.76-15.355s-2.344-4.442-5.1-2.427S96.5,30.3,93.721,31.009c-3,.764-9.66-2.571-16.326-4.878a4.5,4.5,0,0,1,1.248.169Z" transform="translate(683.627 1221.775)" fill="#fff"/>
    <path id="Trazado_62" data-name="Trazado 62" d="M76.683,27.268a4.5,4.5,0,0,1-.268-1.12c2.544,4.971,6.58,12.947,6.93,14.171.514,1.8-1.676,4.134-3.891,7.316-3.481,5-4.1,6.337-3.1,8.644s5.074,2.417,9.353,1.895,7.3-1.278,8.363.326,5.863,7.088,7.834,9.673,6.027,1.956,6.917-1.825S112,53.965,113.318,53.5c1.114-.393,11.976-3.618,15.412-4.638a4.344,4.344,0,0,1-1.543,1.006l-11.7,4.276a4.463,4.463,0,0,0-2.788,3.074l-3.1,12.04a4.466,4.466,0,0,1-7.834,1.639l-7.688-9.779a4.47,4.47,0,0,0-3.79-1.7L77.859,60.2a4.454,4.454,0,0,1-3.982-6.929L80.82,42.949a4.445,4.445,0,0,0,.445-4.121Z" transform="translate(680.215 1226.728)" fill="#ffca02"/>
  </g>
</svg>
