<svg xmlns="http://www.w3.org/2000/svg" width="340" height="370" viewBox="0 0 340 370">
  <g id="Grupo_190" data-name="Grupo 190" transform="translate(-1413 -66)">
    <path id="Trazado_16" data-name="Trazado 16" d="M202.717,412.61c-42.175,19.218-70.647,22.825-89.6,16.485,18.486,25.779,52.29,31.736,115.627-10.625,16.945-12.161,61.733-54.144,92.7-106.048-40.635,51.393-98.493,90.168-118.723,100.188" transform="translate(1388.863 -13.365)" fill="#ecc7ea"/>
    <path id="Trazado_17" data-name="Trazado 17" d="M62.884,180.74C60.253,139.548,14.128,88,25.073,50.784a62.547,62.547,0,0,0-11.742,8.635c-44.383,43.644,35.247,98.162,47.5,147.494.127.509.248,1.042.366,1.584,1.3-11.217,2.125-20.825,1.682-27.756" transform="translate(1413 53.099)" fill="#ecc7ea"/>
    <path id="Trazado_18" data-name="Trazado 18" d="M332.5,106.4c10.657,42.134-4.884,87.254-28.39,126.656,26.112-33.025,45.113-71.258,42.446-110.42-6.817-100.105-235.2-149.693-297.22-107.6-9.546,6.685-14.971,14.4-17.456,22.85C101.519-2.674,309.308,14.721,332.5,106.4" transform="translate(1406.198 66)" fill="#fbb7bf"/>
    <path id="Trazado_19" data-name="Trazado 19" d="M103.594,416.337C75.737,377.488,82.676,293.62,75.817,262.2c-5.992,51.629-22.163,137.429,27.777,154.133" transform="translate(1398.385 -0.608)" fill="#fbb7bf"/>
    <path id="Trazado_20" data-name="Trazado 20" d="M184.927,339.118c20.23-10.02,78.088-48.8,118.723-100.188,23.507-39.4,39.047-84.521,28.391-126.655C308.853,20.6,101.063,3.2,31.42,43.757,20.474,80.979,66.6,132.522,69.231,173.713c.443,6.931-.38,16.539-1.682,27.757,6.859,31.416-.08,115.283,27.777,154.133,18.954,6.34,47.426,2.732,89.6-16.485" transform="translate(1406.653 60.126)" fill="#fff"/>
    <rect id="Rectángulo_64" data-name="Rectángulo 64" width="340" height="370" transform="translate(1413 66)" fill="none"/>
  </g>
</svg>
