<svg xmlns="http://www.w3.org/2000/svg" width="52.526" height="42" viewBox="0 0 52.526 42">
  <g id="Grupo_197" data-name="Grupo 197" transform="translate(-816 454)">
    <path id="Trazado_79317" data-name="Trazado 79317" d="M132.793,24.375h18.3V37.643a45.012,45.012,0,0,1-1.4,12.611,19.441,19.441,0,0,1-5.209,8.309,26.463,26.463,0,0,1-9.6,5.813l-3.581-7.685q5.469-1.839,7.846-5.123a14.9,14.9,0,0,0,2.442-8.736h-8.79Zm-30.732,0h18.3V37.643a46.03,46.03,0,0,1-1.367,12.611,19.159,19.159,0,0,1-5.176,8.309,26.387,26.387,0,0,1-9.669,5.813l-3.581-7.685q5.534-1.839,7.878-5.123a15.393,15.393,0,0,0,2.474-8.736H102.06Z" transform="translate(717.438 -476.375)" fill="#9a8fb2"/>
    <path id="Trazado_79318" data-name="Trazado 79318" d="M132.793,24.375h18.3V37.643a45.012,45.012,0,0,1-1.4,12.611,19.441,19.441,0,0,1-5.209,8.309,26.463,26.463,0,0,1-9.6,5.813l-3.581-7.685q5.469-1.839,7.846-5.123a14.9,14.9,0,0,0,2.442-8.736h-8.79Zm-30.732,0h18.3V37.643a46.03,46.03,0,0,1-1.367,12.611,19.159,19.159,0,0,1-5.176,8.309,26.387,26.387,0,0,1-9.669,5.813l-3.581-7.685q5.534-1.839,7.878-5.123a15.393,15.393,0,0,0,2.474-8.736H102.06Z" transform="translate(715.438 -478.375)" fill="#ded5f2"/>
  </g>
</svg>
