<svg xmlns="http://www.w3.org/2000/svg" xmlns:xlink="http://www.w3.org/1999/xlink" width="150" height="150" viewBox="0 0 150 150">
  <defs>
    <clipPath id="clip-path">
      <rect id="Rectángulo_78" data-name="Rectángulo 78" width="150" height="150" fill="#fff"/>
    </clipPath>
  </defs>
  <g id="Grupo_195" data-name="Grupo 195" opacity="0.2" style="isolation: isolate">
    <g id="Grupo_51" data-name="Grupo 51" clip-path="url(#clip-path)">
      <path id="Trazado_65" data-name="Trazado 65" d="M75,81.985h-.016a3.351,3.351,0,1,0,.016,0m0,20.494h-.016a3.351,3.351,0,1,0,.016,0m0,40.991h-.016a3.351,3.351,0,1,0,.016,0m0-20.5h-.016a3.351,3.351,0,1,0,.016,0M98.888,20.5h-.017a3.351,3.351,0,1,0,.017,0M75,61.489h-.016a3.351,3.351,0,1,0,.016,0M51.119,109.009a3.266,3.266,0,1,0,0-6.53H51.1a3.266,3.266,0,1,0,.016,6.53m0,20.5a3.266,3.266,0,1,0,0-6.529H51.1a3.266,3.266,0,1,0,.016,6.529M75,0h-.016a3.3,3.3,0,0,0-3.333,3.265,3.346,3.346,0,0,0,6.691,0A3.3,3.3,0,0,0,75,0m0,20.5h-.016a3.351,3.351,0,1,0,.016,0m0,20.5h-.016a3.351,3.351,0,1,0,.016,0m71.653,47.524a3.266,3.266,0,1,0,0-6.53h-.016a3.266,3.266,0,1,0,.016,6.53m0-20.5a3.266,3.266,0,1,0,0-6.53h-.016a3.266,3.266,0,1,0,.016,6.53m-1.3-20.755a3.348,3.348,0,0,0,2.664-.04c.013-.006.022-.018.036-.024a3.309,3.309,0,0,0,1.057-.77h0A3.189,3.189,0,0,0,150,44.255a3.3,3.3,0,0,0-3.341-3.264h-.016a3.3,3.3,0,0,0-3.333,3.264h0a3.268,3.268,0,0,0,2.047,3.008M53.481,144.427a5.433,5.433,0,0,0-2.362-.957H51.1a3.3,3.3,0,0,0-3.332,3.265,3.2,3.2,0,0,0,.959,2.274l0,0a3.375,3.375,0,0,0,2.388.986,3.193,3.193,0,0,0,.5-.1h0s0,0,.007,0a3.3,3.3,0,0,0,1.98-1.036,13.843,13.843,0,0,0,.609-.939,3.063,3.063,0,0,0,.243-1.176c0-.005,0-.009,0-.015A3.182,3.182,0,0,0,53.6,144.6c-.046-.051-.067-.121-.117-.169M51.119,88.515a3.266,3.266,0,1,0,0-6.53H51.1a3.266,3.266,0,1,0,.016,6.53m47.769,34.46h-.017a3.351,3.351,0,1,0,.017,0m0-61.486h-.017a3.351,3.351,0,1,0,.017,0m0,20.5h-.017a3.351,3.351,0,1,0,.017,0m0,20.494h-.017a3.351,3.351,0,1,0,.017,0m0-61.488h-.017a3.351,3.351,0,1,0,.017,0m23.885-20.5h-.018a3.351,3.351,0,1,0,.018,0M98.888,6.53a3.3,3.3,0,0,0,3.341-3.264v0a3.129,3.129,0,0,0-.391-1.453c-.022-.04-.053-.073-.077-.112A3.222,3.222,0,0,0,100.787.65h0A3.3,3.3,0,0,0,98.888,0h-.017a3.3,3.3,0,0,0-3.334,3.265A3.313,3.313,0,0,0,98.888,6.53m23.885,95.949h-.018a3.351,3.351,0,1,0,.018,0m0,20.5h-.018a3.351,3.351,0,1,0,.018,0m0-81.984h-.018a3.351,3.351,0,1,0,.018,0m0,40.994h-.018a3.351,3.351,0,1,0,.018,0M3.351,40.991H3.333a2.939,2.939,0,0,0-1.063.21,3.259,3.259,0,0,0-.82.433l0,0h0A3.188,3.188,0,0,0,0,44.256a3.045,3.045,0,0,0,.082.393h0s0,.006,0,.009a3.179,3.179,0,0,0,1.054,2.007c.078.071.178.11.262.173a3.32,3.32,0,0,0,.717.438,3.286,3.286,0,0,0,1.233.243A3.344,3.344,0,0,0,6.43,45.526a3.206,3.206,0,0,0,0-2.541,3.344,3.344,0,0,0-3.079-1.995m119.423,20.5h-.018a3.351,3.351,0,1,0,.018,0M3.351,102.479H3.333a3.24,3.24,0,0,0-1.177.232,3.212,3.212,0,0,0-.507.279,3.218,3.218,0,0,0-.411.271,3.2,3.2,0,0,0-.559.606c-.032.046-.064.09-.095.139a3.121,3.121,0,0,0-.407.887v0h0a3.1,3.1,0,0,0-.175.845,3.239,3.239,0,0,0,1.893,2.906v0h0A3.348,3.348,0,0,0,3.335,109c.006,0,.01,0,.016,0a3.3,3.3,0,0,0,3.342-3.266,3.2,3.2,0,0,0-.262-1.271,3.344,3.344,0,0,0-3.079-1.994m0-40.99H3.333a3.266,3.266,0,1,0,.018,6.53,3.266,3.266,0,1,0,0-6.53m0,20.5H3.333a3.266,3.266,0,1,0,.018,6.53,3.266,3.266,0,1,0,0-6.53m23.886-20.5h-.018a3.351,3.351,0,1,0,.018,0M51.119,6.53A3.3,3.3,0,0,0,54.46,3.265,3.3,3.3,0,0,0,51.119,0H51.1A3.3,3.3,0,0,0,47.77,3.265,3.311,3.311,0,0,0,51.119,6.53m0,40.99a3.266,3.266,0,1,0,0-6.529H51.1a3.266,3.266,0,1,0,.016,6.529m0-20.5a3.266,3.266,0,1,0,0-6.529H51.1a3.266,3.266,0,1,0,.016,6.529M27.237,102.479h-.018a3.351,3.351,0,1,0,.018,0m0-20.494h-.018a3.351,3.351,0,1,0,.018,0m0-61.489h-.018a3.351,3.351,0,1,0,.018,0M51.119,68.018a3.266,3.266,0,1,0,0-6.53H51.1a3.266,3.266,0,1,0,.016,6.53M27.237,122.975h-.018a3.351,3.351,0,1,0,.018,0m0-81.984h-.018a3.351,3.351,0,1,0,.018,0M147.9,102.724a3.323,3.323,0,0,0-1.054-.208c-.065,0-.12-.037-.185-.037h-.018a3.3,3.3,0,0,0-3.333,3.264,3.1,3.1,0,0,0,.258,1.232,3.2,3.2,0,0,0,.474.712c.07.087.111.193.189.273a3.344,3.344,0,0,0,2.177,1l.014,0h0c.083.006.154.047.239.047A3.3,3.3,0,0,0,150,105.743a3.257,3.257,0,0,0-2.1-3.02M98.889,143.47h-.018a3.3,3.3,0,0,0-2.015.73,3.368,3.368,0,0,0-.342.227,3.217,3.217,0,0,0-.922,2.053c-.007.089-.052.165-.052.255h0a3.1,3.1,0,0,0,.236,1.136,2.992,2.992,0,0,0,.157.321,3.23,3.23,0,0,0,.447.645,3.278,3.278,0,0,0,.261.283,3.369,3.369,0,0,0,.9.591h0a3.385,3.385,0,0,0,1.349.287,3.3,3.3,0,0,0,3.139-2.284,2.732,2.732,0,0,0,.2-.96c0-.007,0-.013,0-.02a3.3,3.3,0,0,0-3.342-3.265" transform="translate(0)" fill="#fff"/>
    </g>
  </g>
</svg>
