<svg xmlns="http://www.w3.org/2000/svg" width="120" height="100" viewBox="0 0 120 100">
  <g id="Grupo_194" data-name="Grupo 194" transform="translate(-268.31 -752.752)">
    <rect id="Rectángulo_222" data-name="Rectángulo 222" width="3.684" height="3.685" transform="translate(268.31 752.812)" fill="#33f24e"/>
    <rect id="Rectángulo_223" data-name="Rectángulo 223" width="3.684" height="3.685" transform="translate(291.561 752.799)" fill="#33f24e"/>
    <rect id="Rectángulo_224" data-name="Rectángulo 224" width="3.685" height="3.684" transform="translate(314.81 752.788)" fill="#33f24e"/>
    <rect id="Rectángulo_225" data-name="Rectángulo 225" width="3.684" height="3.684" transform="translate(338.061 752.776)" fill="#33f24e"/>
    <rect id="Rectángulo_226" data-name="Rectángulo 226" width="3.684" height="3.684" transform="translate(361.311 752.764)" fill="#33f24e"/>
    <rect id="Rectángulo_227" data-name="Rectángulo 227" width="3.684" height="3.684" transform="translate(384.568 752.752)" fill="#33f24e"/>
    <rect id="Rectángulo_228" data-name="Rectángulo 228" width="3.685" height="3.684" transform="translate(268.322 772.061)" fill="#33f24e"/>
    <rect id="Rectángulo_229" data-name="Rectángulo 229" width="3.684" height="3.684" transform="translate(291.574 772.049)" fill="#33f24e"/>
    <rect id="Rectángulo_230" data-name="Rectángulo 230" width="3.685" height="3.684" transform="translate(314.823 772.038)" fill="#33f24e"/>
    <rect id="Rectángulo_231" data-name="Rectángulo 231" width="3.684" height="3.684" transform="translate(338.074 772.027)" fill="#33f24e"/>
    <rect id="Rectángulo_232" data-name="Rectángulo 232" width="3.685" height="3.684" transform="translate(361.324 772.016)" fill="#33f24e"/>
    <rect id="Rectángulo_233" data-name="Rectángulo 233" width="3.685" height="3.684" transform="translate(384.579 772.004)" fill="#33f24e"/>
    <rect id="Rectángulo_234" data-name="Rectángulo 234" width="3.684" height="3.684" transform="translate(268.333 791.313)" fill="#33f24e"/>
    <rect id="Rectángulo_235" data-name="Rectángulo 235" width="3.685" height="3.684" transform="translate(291.586 791.302)" fill="#33f24e"/>
    <rect id="Rectángulo_236" data-name="Rectángulo 236" width="3.684" height="3.684" transform="translate(314.837 791.29)" fill="#33f24e"/>
    <rect id="Rectángulo_237" data-name="Rectángulo 237" width="3.685" height="3.684" transform="translate(338.087 791.279)" fill="#33f24e"/>
    <rect id="Rectángulo_238" data-name="Rectángulo 238" width="3.684" height="3.684" transform="translate(361.337 791.267)" fill="#33f24e"/>
    <rect id="Rectángulo_239" data-name="Rectángulo 239" width="3.684" height="3.684" transform="translate(384.591 791.256)" fill="#33f24e"/>
    <rect id="Rectángulo_240" data-name="Rectángulo 240" width="3.684" height="3.684" transform="translate(268.345 810.565)" fill="#33f24e"/>
    <rect id="Rectángulo_241" data-name="Rectángulo 241" width="3.685" height="3.684" transform="translate(291.599 810.553)" fill="#33f24e"/>
    <rect id="Rectángulo_242" data-name="Rectángulo 242" width="3.684" height="3.684" transform="translate(314.85 810.542)" fill="#33f24e"/>
    <rect id="Rectángulo_243" data-name="Rectángulo 243" width="3.685" height="3.684" transform="translate(338.099 810.53)" fill="#33f24e"/>
    <rect id="Rectángulo_244" data-name="Rectángulo 244" width="3.684" height="3.684" transform="translate(361.35 810.519)" fill="#33f24e"/>
    <rect id="Rectángulo_245" data-name="Rectángulo 245" width="3.684" height="3.684" transform="translate(384.603 810.508)" fill="#33f24e"/>
    <rect id="Rectángulo_246" data-name="Rectángulo 246" width="3.685" height="3.685" transform="translate(268.357 829.816)" fill="#33f24e"/>
    <rect id="Rectángulo_247" data-name="Rectángulo 247" width="3.684" height="3.685" transform="translate(291.613 829.805)" fill="#33f24e"/>
    <rect id="Rectángulo_248" data-name="Rectángulo 248" width="3.684" height="3.684" transform="translate(314.863 829.794)" fill="#33f24e"/>
    <rect id="Rectángulo_249" data-name="Rectángulo 249" width="3.684" height="3.684" transform="translate(338.113 829.783)" fill="#33f24e"/>
    <rect id="Rectángulo_250" data-name="Rectángulo 250" width="3.685" height="3.684" transform="translate(361.362 829.771)" fill="#33f24e"/>
    <rect id="Rectángulo_251" data-name="Rectángulo 251" width="3.684" height="3.684" transform="translate(384.615 829.76)" fill="#33f24e"/>
    <rect id="Rectángulo_252" data-name="Rectángulo 252" width="3.684" height="3.684" transform="translate(268.369 849.068)" fill="#33f24e"/>
    <rect id="Rectángulo_253" data-name="Rectángulo 253" width="3.685" height="3.684" transform="translate(291.625 849.057)" fill="#33f24e"/>
    <rect id="Rectángulo_254" data-name="Rectángulo 254" width="3.684" height="3.684" transform="translate(314.876 849.045)" fill="#33f24e"/>
    <rect id="Rectángulo_255" data-name="Rectángulo 255" width="3.685" height="3.684" transform="translate(338.126 849.033)" fill="#33f24e"/>
    <rect id="Rectángulo_256" data-name="Rectángulo 256" width="3.684" height="3.684" transform="translate(361.376 849.021)" fill="#33f24e"/>
    <rect id="Rectángulo_257" data-name="Rectángulo 257" width="3.685" height="3.684" transform="translate(384.626 849.009)" fill="#33f24e"/>
  </g>
</svg>
