<?xml version="1.0" encoding="UTF-8"?><svg id="Layer_2" xmlns="http://www.w3.org/2000/svg" viewBox="0 0 199.49 51.11"><defs><style>.cls-1{fill:#55708e;}.cls-2{fill:#a2b0c6;}.cls-3{fill:#034f93;}</style></defs><g id="Layer_1-2"><g><g><path class="cls-3" d="M68.31,35.64c3.75,0,7.5,0,11.25,0,3.06,0,4.6,1.55,4.6,4.57,0,3.29,.02,9.83,.02,10.76-1.5,.02-5.93,.02-5.93,.02,.03-3.29,0-7.4,.03-10.69,0-.68-.01-.72-.01-.72-1.37,.04-5.18,0-5.56-.01,.04,3.26,0,8.15,.03,11.41h-6.03c.04-3.2,0-7.37,.03-10.57,0-.71,0-.85,0-.95-1.23-.02-4.15,0-5.37,0,0,.06-.01,.24,0,.91,.03,3.23,0,7.37,.03,10.61,0,0-5.75,0-5.91,0,.01-4.7,.02-10.65,0-15.36,.7,0,.32,0,.78,0,4.02,0,8.04,0,12.06,0Z"/><path class="cls-3" d="M130.22,39.3c-.12,.03-.12-.71,0,0h0Z"/><path class="cls-3" d="M130.23,41.54s0,.08,0,.09c-.1,.66-.59-.09,0-.09Z"/><path class="cls-3" d="M141.33,50.94c-5.64,.05-11.28,.01-16.92,.02-.1,0-.18,0-.26-.02h17.17Z"/><path class="cls-3" d="M107.45,35.64c2.85,0,5.7,.02,8.55,0,1.81-.01,3.18,.68,4.04,2.32,.31,.58,.36,1.2,.36,1.83,0,3.47-.01,6.95,.02,10.42,0,.65,0,.78,0,.78-1.5,0-3.61,.01-5.13,0-.68,0-.73,0-.85,0,.05-3.23,0-7.32,.07-10.55,.02-.83,.02-.94,.02-.94-3.08-.09-11.11-.04-11.11-.04,.04,3.23,.05,11.36,.05,11.51-1.93,0-5.93,.02-5.93,.02,.01-4.7,.02-10.56,0-15.26,0-.07,0-.07,0-.09,3.06,0,6.86,0,9.92,0Z"/><path class="cls-3" d="M173.26,36.27c-.02,3.59,.02,7.19-.02,10.78,0,.19-.02,.38-.05,.57-.23,1.55-1.3,2.75-2.76,3.17-.37,.11-.76,.17-1.16,.17-2.49,.02-4.98,0-7.47,0s-4.8,0-7.2,0c-2.53-.01-4.32-1.81-4.32-4.3v-.07c.05-3.38,.11-6.76,.11-10.15,0-.71,.23-.84,.86-.82,1.38,.04,2.76,.05,4.14,0,.56-.02,.82,.08,.89,.53,.02,.1,.02,.21,.02,.35-.02,1.25-.02,2.49-.02,3.74,0,1.4,0,2.79,0,4.19,0,.56,0,1.12-.01,1.68,0,.14,0,.26,.01,.37v.57h.53c.1,.02,.22,.03,.37,.02,.61,0,1.23-.02,1.85-.02,1.87-.02,3.74-.02,5.61,0,.63,0,1.27,0,1.9,.02,.13,0,.24,0,.34-.02h.39v-.22c.08-.13,.1-.32,.1-.6-.04-3.26-.01-6.52-.05-9.79,0-.61,.12-.83,.77-.81,1.5,.05,3,.03,4.5,0,.48,0,.67,.11,.67,.62v.02Z"/><path class="cls-3" d="M87.79,43.34c0-2.33,.02-4.67-.01-7,0-.55,.15-.72,.7-.71,1.59,.03,3.18,.03,4.76,0,.49,0,.67,.1,.67,.63-.02,4.7-.02,9.39,0,14.09,0,.46-.12,.62-.6,.61-1.62-.03-3.24-.04-4.85,0-.59,.02-.68-.21-.68-.73,.02-2.3,.01-4.61,.01-6.91Z"/><path class="cls-3" d="M182.86,51.11h-6.04v-15.48h17.91c1.14,0,2.13,.39,2.95,1.19,.83,.79,1.24,1.74,1.24,2.88v1.82c0,.91-.3,1.74-.87,2.47-.58,.73-1.57,1.19-2.96,1.39l4.39,5.73h-6.42l-6.01-9.16h5.82v-2.6h-10.01v11.76h0Z"/></g><path class="cls-3" d="M146.72,46.65c-.02,2.35-1.71,4.25-4.05,4.28-.43,0-.87,0-1.3,.01h-17.22c-.24-.05-.33-.21-.32-.54,.02-.59-.1-1.28-.1-1.87,0-.4,.05-.75,.24-1.02,.36-.36,1.82-.24,2.78-.25,4.2-.01,9.31,0,13.51,.05v-.09c0-.42,.02-.11,0-.79-.04-1.48-.04-1.48-.04-1.48-3.33,0-8.09,.01-11.41,0-2.3,0-4.19-1.14-4.71-3.03-.9-3.27,.55-6.26,4.1-6.29,2.94-.03,5.87,0,8.81,0,5.97,0,6.71-.02,9.64-.05,0,0-.03,1.48-.03,3.73-4.23,0-12.17,.02-16.4-.02h0c-.12-.71-.12,.03,0,0v.02c.03,.16,.03,1.79,0,2.22-.6,0-.11,.75,0,.09,0-.02,0-.05,0-.09,3.54-.03,7.88,0,11.42-.01,1.32,0,2.55,.32,3.65,1.04,.89,.57,1.37,1.4,1.41,2.46,.02,.54,.01,1.08,.01,1.62Z"/><path class="cls-3" d="M123.74,50.94v-2.41c0,.6,.12,1.28,.1,1.87-.01,.33,.08,.48,.32,.54h-.42Z"/><path class="cls-3" d="M140.26,47.23v.09c-4.2-.05-9.31-.07-13.51-.05-.96,0-2.42-.12-2.78,.25-.18,.27-.24,.62-.24,1.02v-1.3h16.52Z"/><rect class="cls-3" x="87.79" y="35.58" width="6.13" height="15.41"/><path class="cls-3" d="M173.26,35.58v11.29c0,.26-.02,.51-.07,.75-.27,1.49-1.35,2.71-2.76,3.17-.41,.13-.84,.21-1.29,.21h-14.72c-2.28,0-4.13-1.85-4.13-4.13v-11.29h6v11.47h10.98v-11.47h6Z"/><g><path class="cls-2" d="M28.13,28.13l-4.29,10.77-4.3-10.77v4.86l-5.86,1-1.79,10.47c1.54,.9,3.2,1.63,4.93,2.17l1.24-10.14h.06l4.6,11.17c.37,.02,.74,.02,1.11,.02h0c.37,0,.74,0,1.11-.02l4.6-11.17h.06l1.25,10.14c1.74-.54,3.39-1.27,4.92-2.17l-1.78-10.47-5.85-1v-4.86"/><path class="cls-2" d="M19.54,19.54l4.3-10.78,4.29,10.78v-4.86l5.85-1,1.78-10.46c-1.53-.9-3.19-1.64-4.92-2.17l-1.25,10.13h-.06L24.95,.03c-.37-.01-.74-.03-1.11-.03h0c-.37,0-.74,.01-1.11,.03l-4.6,11.17h-.06l-1.24-10.13c-1.73,.53-3.39,1.27-4.93,2.17l1.79,10.46,5.86,1v4.86Z"/><path class="cls-2" d="M19.54,28.13l-10.78-4.29,10.78-4.3h-4.86l-.99-5.86-10.47-1.78c-.9,1.53-1.63,3.18-2.17,4.92l10.14,1.24v.05L.02,22.72c-.01,.37-.02,.75-.02,1.12s.01,.74,.02,1.11l11.17,4.6v.05l-10.14,1.26c.54,1.73,1.27,3.38,2.17,4.92l10.47-1.79,.99-5.86h4.86Z"/><path class="cls-2" d="M47.65,22.72l-11.16-4.6v-.05l10.13-1.25c-.53-1.74-1.27-3.39-2.17-4.92l-10.46,1.78-.99,5.86h-4.86l10.78,4.3h0l-10.77,4.29h4.86l.99,5.86,10.46,1.79c.9-1.54,1.64-3.19,2.17-4.92l-10.13-1.26v-.05l11.16-4.6c.02-.37,.03-.74,.03-1.11s-.01-.75-.03-1.12"/><polygon class="cls-1" points="19.54 28.13 14.68 28.13 13.69 33.99 19.54 32.99 19.54 28.13"/><polygon class="cls-1" points="19.54 19.54 19.54 14.68 13.69 13.68 14.68 19.54 19.54 19.54"/><polygon class="cls-1" points="28.13 28.13 28.13 32.99 33.99 33.99 32.99 28.13 28.13 28.13"/><polygon class="cls-1" points="28.13 19.54 32.99 19.54 33.99 13.68 28.13 14.68 28.13 19.54"/></g></g></g></svg>