<?xml version="1.0" encoding="UTF-8"?><svg id="Layer_2" xmlns="http://www.w3.org/2000/svg" viewBox="0 0 189.78 66.18"><defs><style>.cls-1{fill:#005cb9;}.cls-2{fill:#6abf4b;}</style></defs><g id="Layer_1-2"><g><path class="cls-1" d="M95.8,44.22l-2.22-1.99c-1.7,1.09-3.75,1.73-6,1.73-6.23,0-10.71-4.65-10.71-10.39v-.06c0-5.75,4.53-10.45,10.77-10.45s10.71,4.65,10.71,10.39v.06c0,2.11-.63,4.13-1.79,5.8l2.08,1.76-2.83,3.14Zm-2.11-10.71c0-3.46-2.54-6.35-6.12-6.35s-6.06,2.83-6.06,6.29v.06c0,3.46,2.54,6.35,6.12,6.35,.98,0,1.88-.2,2.66-.55l-.41-.39c-2.58-2.32,.19-5.6,.19-5.6l3.08,3.01c.38-.84,.55-1.76,.55-2.77v-.06Z"/><path class="cls-1" d="M114.11,43.62l-4.33-6.47h-3.49v4.24c0,1.41-1.22,2.22-2.15,2.22h-2.3V25.63c0-1.22,1.08-2.22,2.22-2.22h7.01c4.76,0,7.62,2.51,7.62,6.67v.06c0,3.26-1.76,5.31-4.33,6.27l4.94,7.22h-5.2Zm.09-13.31c0-1.9-1.33-2.88-3.49-2.88h-4.41v5.8h4.5c2.17,0,3.41-1.15,3.41-2.86v-.06Z"/><path class="cls-1" d="M131.65,43.96c-6.23,0-10.71-4.65-10.71-10.39v-.06c0-5.75,4.53-10.45,10.77-10.45s10.71,4.65,10.71,10.39v.06c0,5.74-4.53,10.45-10.77,10.45m6.12-10.45c0-3.46-2.54-6.35-6.12-6.35s-6.06,2.83-6.06,6.29v.06c0,3.46,2.54,6.35,6.12,6.35s6.06-2.83,6.06-6.29v-.06Z"/><path class="cls-1" d="M161.27,41.4v-10.97l-5.69,8.63h-.11l-5.63-8.54v13.11h-4.36V25.64c0-1.27,1.03-2.24,2.28-2.24h2.51l5.31,8.54,5.31-8.54h4.79v20.21h-2.22c-1.12,0-2.19-.9-2.19-2.22"/><path class="cls-1" d="M185.13,43.62l-1.85-4.53h-8.54s-.66,1.64-1.28,3.14c-.61,1.5-2.06,1.4-2.06,1.4h-3.04l8.66-20.35h4.1l8.66,20.35h-4.65Zm-6.12-15.01l-2.69,6.55h5.37l-2.68-6.55Z"/><path class="cls-2" d="M50.72,40.23h-13.06v13.06c0,7.07,5.81,12.89,12.97,12.89s12.97-5.82,12.97-12.97-5.77-12.93-12.88-12.97"/><path class="cls-1" d="M33.75,46.93c-.53,.05-1.07,.08-1.62,.08-9.01,0-15.22-7.48-15.22-16.07v-.17c0-8.58,6.04-15.89,15.04-15.89s15.3,7.48,15.3,16.06v.17c0,1.82-.29,3.57-.8,5.21h4.17c4.56,0,8.7,1.83,11.74,4.78,1.11-3.18,1.72-6.6,1.72-10.16v-.17C64.09,13.69,50.49,0,32.13,0S0,13.86,0,30.94v.17c0,17.09,13.6,30.77,31.96,30.77,1.39,0,2.74-.09,4.07-.24-1.44-2.49-2.28-5.36-2.28-8.43v-6.28Z"/></g></g></svg>