<?xml version="1.0" encoding="UTF-8"?><svg id="Layer_2" xmlns="http://www.w3.org/2000/svg" viewBox="0 0 192.16 67.48"><defs><style>.cls-1{fill:#00395d;}</style></defs><g id="Layer_1-2"><g><path class="cls-1" d="M0,23.82v23.26c0,10.15,7.48,18.57,17.3,20.18,.5,.09,1.01,.16,1.52,.21V12.99L0,23.82Z"/><path class="cls-1" d="M22.63,10.84v56.64c.42-.04,.83-.1,1.24-.17,9.95-1.48,17.57-9.96,17.57-20.22V0L22.63,10.84Z"/><path class="cls-1" d="M71.12,53.5c-.91,1.54-2.82,2.22-4.56,2.22-3.99,0-6.28-2.92-6.28-6.51v-10.44h4.46v9.53c0,1.85,.94,3.32,3.02,3.32s3.12-1.34,3.12-3.26v-9.6h4.46v13.53c0,1.28,.1,2.42,.17,2.99h-4.26c-.07-.34-.13-1.11-.13-1.78"/><path class="cls-1" d="M88.51,43.19c-.5-.1-.94-.13-1.34-.13-2.28,0-4.26,1.11-4.26,4.67v7.55h-4.46v-16.51h4.33v2.45c1.01-2.18,3.29-2.58,4.7-2.58,.37,0,.71,.03,1.04,.07v4.5Z"/><path class="cls-1" d="M90.05,55.28V30.98h4.4v9.6c.74-1.18,2.55-2.25,5-2.25,4.83,0,7.62,3.73,7.62,8.63s-3.09,8.73-7.79,8.73c-2.28,0-4.03-1.01-4.9-2.42v2.01h-4.33Zm8.46-12.96c-2.25,0-4.13,1.64-4.13,4.67s1.88,4.7,4.13,4.7,4.09-1.68,4.09-4.7-1.81-4.67-4.09-4.67"/><path class="cls-1" d="M113.11,45.78l4.06-.6c.94-.13,1.24-.6,1.24-1.17,0-1.18-.91-2.15-2.79-2.15s-3.02,1.24-3.16,2.69l-3.96-.84c.27-2.58,2.65-5.44,7.08-5.44,5.24,0,7.18,2.95,7.18,6.28v8.12c0,.87,.1,2.05,.2,2.62h-4.1c-.1-.44-.17-1.34-.17-1.98-.84,1.31-2.42,2.45-4.87,2.45-3.53,0-5.67-2.38-5.67-4.97,0-2.95,2.18-4.6,4.93-5m5.3,2.82v-.74l-3.73,.57c-1.14,.17-2.05,.8-2.05,2.08,0,.97,.7,1.91,2.15,1.91,1.88,0,3.62-.91,3.62-3.83"/><path class="cls-1" d="M130.23,55.28h-4.46v-16.51h4.33v2.05c1.01-1.71,2.99-2.48,4.77-2.48,4.1,0,5.97,2.92,5.97,6.55v10.41h-4.46v-9.63c0-1.85-.91-3.29-3.05-3.29-1.95,0-3.09,1.51-3.09,3.42v9.5Z"/><path class="cls-1" d="M159.93,47.02c0,5.07-3.73,8.76-8.66,8.76s-8.66-3.69-8.66-8.76,3.73-8.76,8.66-8.76,8.66,3.66,8.66,8.76m-4.46,0c0-3.12-2.01-4.7-4.2-4.7s-4.2,1.58-4.2,4.7,2.01,4.7,4.2,4.7,4.2-1.58,4.2-4.7"/><polygon class="cls-1" points="170.78 55.28 166.31 55.28 159.56 38.76 164.47 38.76 168.56 49.84 172.49 38.76 177.19 38.76 170.78 55.28"/><path class="cls-1" d="M182.29,45.78l4.06-.6c.94-.13,1.24-.6,1.24-1.17,0-1.18-.91-2.15-2.79-2.15s-3.02,1.24-3.16,2.69l-3.96-.84c.27-2.58,2.65-5.44,7.08-5.44,5.24,0,7.18,2.95,7.18,6.28v8.12c0,.87,.1,2.05,.2,2.62h-4.1c-.1-.44-.17-1.34-.17-1.98-.84,1.31-2.42,2.45-4.87,2.45-3.53,0-5.67-2.38-5.67-4.97,0-2.95,2.18-4.6,4.93-5m5.3,2.82v-.74l-3.73,.57c-1.14,.17-2.05,.8-2.05,2.08,0,.97,.7,1.91,2.15,1.91,1.88,0,3.62-.91,3.62-3.83"/></g></g></svg>