<?xml version="1.0" encoding="UTF-8"?><svg id="Layer_2" xmlns="http://www.w3.org/2000/svg" viewBox="0 0 162.72 69.32"><defs><style>.cls-1{fill:#fff;}.cls-2{fill:#0b4c80;}.cls-3{fill:#27bae5;}.cls-4{fill:#61a344;}</style></defs><g id="Layer_1-2"><g><g id="logo"><g><path class="cls-1" d="M8.39,64.41c-.24,0-.48-.05-.7-.17-.56-.3-.85-.94-.71-1.57,.06-.29,1.44-6.44,3.3-10.87-.19-.05-.38-.1-.58-.15-2.84-.74-6.74-1.76-9.11-3.49-.51-.38-.72-1.05-.5-1.65,.22-.6,.8-.98,1.44-.94,27.77,1.89,42.74-11.71,56.85-27.03,.45-.48,1.17-.6,1.74-.28,.58,.32,.86,.99,.69,1.62-8.46,31.87-30.89,32.91-39.33,33.3-.54,.03-1.02,.05-1.43,.08-2.74,2.64-10.57,10.64-10.65,10.73-.27,.28-.64,.43-1.01,.43m.86-15.84c.41,.11,.81,.21,1.18,.31,.94,.24,1.74,.46,2.32,.65,.39,.13,.71,.43,.86,.82,.16,.39,.14,.82-.05,1.19-.93,1.82-1.78,4.36-2.44,6.61,2.66-2.7,5.98-6.05,7.33-7.32,.23-.22,.52-.35,.84-.38,.56-.06,1.26-.09,2.06-.13,7.31-.34,25.89-1.2,34.84-25.28-12.04,12.42-25.47,22.77-46.94,23.53"/><path class="cls-3" d="M8.38,62.98s8.68-8.88,11.05-11.11c5.9-.59,31.02,1.48,40-32.36-13.97,15.17-29.24,29.45-58,27.49,2.9,2.12,8.81,3.19,10.85,3.89-2.16,4.25-3.9,12.1-3.9,12.1"/><path class="cls-1" d="M56.69,60.12c-.52,0-1-.27-1.26-.73C41.8,35.12,22.22,30.05,1.67,26.63c-.65-.11-1.14-.65-1.19-1.3-.05-.66,.35-1.26,.98-1.47,31.3-10.38,44.46,7.82,49.41,14.67,.32,.44,.6,.83,.85,1.16,3.7,.84,14.69,3.01,14.81,3.03,.63,.12,1.1,.65,1.15,1.29,.05,.64-.32,1.23-.92,1.46-.28,.11-6.18,2.32-10.91,3.19,.06,.18,.13,.38,.19,.57,.93,2.79,2.22,6.6,2.07,9.53-.03,.64-.48,1.18-1.1,1.32-.1,.03-.21,.04-.31,.04M8.31,24.9c16.98,3.27,33,8.84,45.39,26.39-.13-.41-.26-.79-.38-1.15-.31-.92-.57-1.71-.72-2.3-.1-.4-.03-.83,.21-1.17,.23-.34,.61-.56,1.02-.61,2.02-.22,4.62-.9,6.87-1.58-3.72-.75-8.34-1.69-10.14-2.12-.31-.07-.58-.25-.78-.49-.35-.44-.76-1-1.24-1.66-4.29-5.94-15.19-21.01-40.23-15.3"/><path class="cls-2" d="M66.24,44.13s-12.19-2.4-15.35-3.16c-3.72-4.61-15.75-26.77-48.99-15.75,20.34,3.38,40.65,8.34,54.77,33.47,.18-3.58-2.16-9.12-2.69-11.2,4.74-.52,12.26-3.36,12.26-3.36"/><path class="cls-1" d="M32.79,69.32c-.4,0-.79-.16-1.07-.47-22.25-24.34-11-43.78-6.77-51.09,.27-.47,.51-.89,.71-1.25-.74-3.73-3.24-14.64-3.27-14.76-.14-.62,.14-1.27,.7-1.57,.56-.31,1.26-.21,1.71,.25,.21,.21,4.64,4.69,7.36,8.65,.14-.13,.29-.27,.45-.41,2.16-1.99,5.12-4.71,7.86-5.77,.59-.23,1.27-.04,1.66,.47,.39,.51,.39,1.21,0,1.72-16.59,22.34-13.24,42.29-7.97,62.44,.17,.64-.12,1.31-.7,1.62-.21,.12-.44,.17-.67,.17M26.37,6.35c.84,3.7,1.86,8.3,2.2,10.13,.06,.31,.01,.63-.13,.91-.26,.5-.6,1.1-1.01,1.8-3.67,6.34-12.98,22.44,2.45,42.97-3.95-16.84-5.4-33.73,5.56-52.21-.31,.29-.62,.56-.89,.82-.71,.66-1.33,1.22-1.8,1.6-.33,.26-.75,.36-1.16,.29-.41-.08-.76-.33-.97-.69-1.03-1.76-2.71-3.85-4.25-5.63"/><path class="cls-4" d="M23.78,1.43s2.78,12.11,3.38,15.31c-2.69,5.28-18.01,25.3,5.62,51.15-5.21-19.95-8.98-40.52,8.21-63.66-3.34,1.3-7.45,5.69-9.13,7.02C29.45,7.13,23.78,1.43,23.78,1.43"/></g></g><g><path class="cls-2" d="M107.04,22.28l11.03,25.4-3.98,.04-2.66-6.4-12.5,.12-2.53,6.46-3.84,.04,10.64-25.61,3.84-.04Zm-6.97,16.15l10.16-.1-5.2-12.59-4.95,12.69Z"/><path class="cls-2" d="M131.87,25.42c-.38-.13-.75-.24-1.12-.34-.37-.09-.74-.16-1.13-.19-.39-.03-.82-.05-1.28-.04-.51,0-1.03,.07-1.55,.18-.52,.11-1,.3-1.44,.56-.43,.26-.79,.61-1.05,1.05-.26,.44-.39,.99-.39,1.65,0,.83,.28,1.5,.82,2.02,.54,.52,1.22,.99,2.04,1.42,.82,.43,1.71,.86,2.66,1.27,.96,.42,1.84,.94,2.66,1.56,.82,.63,1.51,1.4,2.05,2.32,.54,.92,.82,2.07,.84,3.46,.01,1.37-.22,2.53-.7,3.5-.48,.97-1.14,1.76-1.99,2.38-.85,.62-1.83,1.07-2.96,1.36-1.13,.29-2.33,.44-3.59,.46-.9,0-1.79-.09-2.65-.3-.87-.21-1.73-.45-2.58-.71l.33-3.4,1.1,.39c.42,.14,.85,.27,1.32,.39,.46,.12,.95,.22,1.45,.3,.5,.08,.98,.12,1.44,.11,.51,0,1.06-.09,1.66-.25,.6-.16,1.13-.41,1.62-.75,.48-.33,.89-.76,1.21-1.29,.32-.53,.48-1.17,.47-1.93,0-.95-.28-1.72-.83-2.31-.54-.59-1.22-1.11-2.04-1.55-.82-.44-1.71-.86-2.66-1.27-.95-.4-1.84-.89-2.66-1.45-.82-.56-1.51-1.27-2.05-2.12-.54-.85-.82-1.93-.84-3.24-.01-1.12,.19-2.12,.61-2.98,.42-.87,.99-1.6,1.71-2.19,.72-.59,1.59-1.05,2.58-1.36,1-.31,2.07-.48,3.21-.49,.85,0,1.75,.05,2.71,.19,.95,.14,1.87,.36,2.75,.67l-.48,3.37-1.26-.45Z"/><path class="cls-2" d="M151.69,21.84l11.03,25.4-3.98,.04-2.66-6.41-12.5,.12-2.53,6.46-3.83,.04,10.64-25.61,3.84-.04Zm-6.97,16.15l10.16-.1-5.2-12.59-4.96,12.69Z"/><polygon class="cls-2" points="74.01 25.82 73.98 22.61 93.49 22.41 93.52 25.63 85.59 25.71 85.81 48 82.16 48.03 81.94 25.74 74.01 25.82"/></g></g></g></svg>