<?xml version="1.0" encoding="UTF-8"?><svg id="Layer_2" xmlns="http://www.w3.org/2000/svg" xmlns:xlink="http://www.w3.org/1999/xlink" viewBox="0 0 151.36 52.49"><defs><style>.cls-1{fill:#fff;}.cls-2{filter:url(#drop-shadow-1);}.cls-3{fill:none;}.cls-4{fill:#7f7f7f;}.cls-5{fill:#404040;}</style><filter id="drop-shadow-1" filterUnits="userSpaceOnUse"><feOffset dx="1.64" dy="1.64"/><feGaussianBlur result="blur" stdDeviation="1.17"/><feFlood flood-color="#180a3f" flood-opacity=".75"/><feComposite in2="blur" operator="in"/><feComposite in="SourceGraphic"/></filter></defs><g id="Layer_1-2"><g class="cls-2"><rect class="cls-3" width="151.36" height="52.49"/><g><g><path class="cls-1" d="M49.71,16.03c0-.24,.2-.44,.44-.44h6.99c2.11,0,3.92,.38,5.43,1.14,1.51,.76,2.67,1.86,3.47,3.3,.8,1.44,1.2,3.16,1.2,5.16s-.4,3.75-1.19,5.19c-.79,1.44-1.95,2.55-3.46,3.31-1.51,.77-3.33,1.15-5.46,1.15h-6.99c-.24,0-.44-.2-.44-.44V16.03Zm7.16,15.4c4.11,0,6.16-2.08,6.16-6.24s-2.05-6.19-6.16-6.19h-2.5c-.24,0-.44,.2-.44,.44v11.55c0,.24,.2,.44,.44,.44h2.5Z"/><path class="cls-1" d="M83.66,21.57v12.82c0,.24-.2,.44-.44,.44h-3.14c-.24,0-.44-.2-.44-.44v-1.58c-.41,.7-1,1.25-1.76,1.65s-1.61,.59-2.57,.59c-1.19,0-2.24-.29-3.15-.87-.91-.58-1.62-1.4-2.14-2.47-.51-1.07-.77-2.31-.77-3.72s.26-2.66,.77-3.76c.51-1.1,1.23-1.95,2.15-2.55,.92-.6,1.96-.91,3.14-.91,.96,0,1.81,.21,2.57,.62,.76,.41,1.34,.97,1.76,1.68v-1.5c0-.24,.2-.44,.44-.44h3.14c.24,0,.44,.2,.44,.44Zm-4.84,9.34c.54-.68,.81-1.68,.81-2.97s-.27-2.29-.81-2.99c-.54-.69-1.32-1.04-2.32-1.04s-1.79,.36-2.35,1.08c-.56,.72-.84,1.72-.84,3s.27,2.26,.82,2.93c.55,.68,1.34,1.01,2.37,1.01s1.78-.34,2.32-1.03Z"/><path class="cls-1" d="M107.59,24.18v5.33c0,.76,.2,1.31,.59,1.66,.4,.35,.91,.53,1.54,.53h.91c.24,0,.44,.2,.44,.44v2.22c0,.2-.13,.37-.32,.42-.58,.18-1.26,.27-2.04,.27-1.69,0-2.99-.48-3.88-1.43-.89-.96-1.34-2.3-1.34-4.03v-5.41h-2.15c-.24,0-.44-.2-.44-.44v-2.17c0-.24,.2-.44,.44-.44h2.15v-2.9c0-.19,.12-.36,.31-.42l3.2-1.04c.29-.09,.58,.12,.58,.42v3.93h3.04c.24,0,.44,.2,.44,.44v2.17c0,.24-.2,.44-.44,.44h-3.04Z"/><path class="cls-1" d="M113.46,14.69h3.47c.24,0,.44,.2,.44,.44v2.95c0,.24-.2,.44-.44,.44h-3.47c-.24,0-.44-.2-.44-.44v-2.95c0-.24,.2-.44,.44-.44Zm-.31,19.7v-12.82c0-.24,.2-.44,.44-.44h3.2c.24,0,.44,.2,.44,.44v12.82c0,.24-.2,.44-.44,.44h-3.2c-.24,0-.44-.2-.44-.44Z"/><path class="cls-1" d="M121.44,33.16c-1.27-1.26-1.91-2.98-1.91-5.16,0-1.42,.31-2.68,.92-3.77,.61-1.09,1.47-1.94,2.58-2.54,1.11-.6,2.39-.91,3.85-.91,.99,0,1.96,.15,2.89,.46,.81,.26,1.48,.61,2,1.03,.15,.12,.2,.32,.13,.5l-.76,2.01c-.1,.27-.42,.37-.66,.21-.41-.28-.86-.5-1.33-.68-.65-.24-1.28-.36-1.89-.36-1.12,0-1.99,.34-2.61,1.01-.62,.68-.93,1.66-.93,2.96s.31,2.31,.92,2.99c.61,.68,1.49,1.01,2.62,1.01,.61,0,1.24-.12,1.89-.36,.47-.18,.91-.4,1.33-.68,.24-.16,.56-.06,.66,.21l.76,2c.07,.18,.01,.39-.14,.51-.56,.43-1.25,.77-2.07,1.02-.96,.3-1.96,.45-3,.45-2.23,0-3.99-.63-5.26-1.89Z"/><path class="cls-1" d="M136.51,34.19c-1.09-.58-1.93-1.41-2.51-2.49-.59-1.08-.88-2.34-.88-3.78s.29-2.7,.88-3.78c.59-1.08,1.42-1.91,2.51-2.49,1.09-.58,2.37-.87,3.83-.87s2.7,.29,3.78,.87c1.08,.58,1.91,1.41,2.5,2.49,.59,1.08,.88,2.34,.88,3.78s-.29,2.7-.88,3.78c-.59,1.08-1.42,1.91-2.5,2.49-1.08,.58-2.34,.87-3.78,.87s-2.74-.29-3.83-.87Zm6.14-3.24c.53-.67,.8-1.68,.8-3.03s-.27-2.34-.8-3.01c-.53-.68-1.3-1.01-2.31-1.01s-1.81,.34-2.35,1.01c-.54,.68-.81,1.68-.81,3.01,0,2.69,1.05,4.03,3.16,4.03,1.01,0,1.78-.33,2.31-1Z"/><g><path class="cls-4" d="M95.32,34.38c.25,.29,.62,.45,1,.45h3.43c.38,0,.58-.45,.33-.73l-5.27-6.08c-.15-.17-.14-.42,0-.58l4.9-5.54c.25-.29,.05-.74-.33-.74h-3.31c-.38,0-.75,.17-1,.45l-5.24,5.91c-.15,.17-.15,.42,0,.59l5.49,6.28Z"/><path class="cls-1" d="M89.83,28.1c-.15-.17-.15-.42,0-.59l.52-.58V15.38c0-.24-.2-.44-.44-.44h-3.21c-.24,0-.44,.2-.44,.44v19.01c0,.24,.2,.44,.44,.44h3.21c.24,0,.44-.2,.44-.44v-5.69h0l-.52-.6Z"/></g></g><g><path class="cls-5" d="M65.4,40.92c0,.97,.32,1.47,1.25,1.47,.29,0,.59-.02,.89-.05,.07,0,.1,.01,.1,.06v.24s-.02,.06-.07,.07c-.31,.06-.67,.1-.99,.1-1.24,0-1.72-.75-1.72-1.87v-.17c0-1.12,.47-1.87,1.72-1.87,.32,0,.63,.04,.93,.1,.05,.01,.07,.03,.07,.07v.24c0,.05-.03,.08-.1,.06-.29-.04-.54-.05-.83-.05-.92,0-1.25,.5-1.25,1.47v.13Z"/><path class="cls-5" d="M71.07,40.03s.03-.08,.08-.08h.35c.05,0,.08,.03,.08,.08v2.39c0,.15-.05,.22-.17,.25-.33,.09-.71,.12-1.15,.12-.93,0-1.31-.33-1.31-1.06v-1.71s.03-.08,.08-.08h.35c.05,0,.08,.03,.08,.08v1.66c0,.51,.22,.71,.86,.71,.27,0,.5-.02,.74-.06v-2.31Z"/><path class="cls-5" d="M73.66,42.67s-.03,.08-.08,.08h-.35c-.05,0-.08-.03-.08-.08v-2.39c0-.15,.05-.22,.17-.25,.32-.08,.68-.12,1.05-.12,.17,0,.36,0,.53,.02,.06,0,.08,.03,.08,.08v.28c0,.08-.05,.08-.11,.07-.19-.03-.35-.04-.52-.04-.23,0-.45,.02-.68,.06v2.3Z"/><path class="cls-5" d="M77.56,41.24c.41,.15,.69,.41,.69,.77,0,.51-.47,.78-1.1,.78-.36,0-.77-.03-1.06-.1-.04-.01-.07-.03-.07-.07v-.21c0-.05,.03-.08,.1-.06,.29,.04,.67,.05,1.01,.05,.37,0,.6-.12,.6-.38,0-.17-.14-.32-.39-.42l-.63-.23c-.41-.15-.69-.36-.69-.72,0-.51,.44-.73,1.07-.73,.32,0,.62,.03,.92,.1,.04,.01,.07,.03,.07,.07v.21c0,.05-.03,.08-.1,.06-.24-.03-.58-.05-.88-.05-.37,0-.57,.08-.57,.33,0,.17,.14,.28,.39,.37l.63,.23Z"/><path class="cls-5" d="M82.3,41.44c0,.89-.53,1.35-1.43,1.35s-1.43-.46-1.43-1.35v-.18c0-.89,.53-1.35,1.43-1.35s1.43,.46,1.43,1.35v.18Zm-.52-.03v-.13c0-.62-.25-.98-.91-.98s-.91,.37-.91,.98v.13c0,.62,.25,.98,.91,.98s.91-.37,.91-.98Z"/><path class="cls-5" d="M85.07,41.24c.41,.15,.69,.41,.69,.77,0,.51-.47,.78-1.1,.78-.36,0-.77-.03-1.06-.1-.04-.01-.07-.03-.07-.07v-.21c0-.05,.03-.08,.1-.06,.29,.04,.67,.05,1.01,.05,.37,0,.6-.12,.6-.38,0-.17-.14-.32-.39-.42l-.63-.23c-.41-.15-.69-.36-.69-.72,0-.51,.44-.73,1.07-.73,.32,0,.62,.03,.92,.1,.04,.01,.07,.03,.07,.07v.21c0,.05-.03,.08-.1,.06-.24-.03-.58-.05-.88-.05-.37,0-.57,.08-.57,.33,0,.17,.14,.28,.39,.37l.63,.23Z"/><path class="cls-5" d="M90.05,42.67s-.03,.08-.08,.08h-.35c-.05,0-.08-.03-.08-.08v-3.79s.03-.08,.08-.08h.35c.05,0,.08,.03,.08,.08v1.18c.25-.09,.61-.15,.94-.15,.7,0,1.18,.28,1.18,1.06v1.71s-.03,.08-.08,.08h-.35c-.05,0-.08-.03-.08-.08v-1.66c0-.51-.22-.71-.86-.71-.26,0-.52,.01-.74,.04v2.33Z"/><path class="cls-5" d="M95.99,42.34c.07-.01,.1,.01,.1,.06v.21s-.03,.06-.07,.07c-.28,.07-.64,.1-.95,.1-1.05,0-1.55-.49-1.55-1.42v-.12c0-.89,.54-1.35,1.43-1.35s1.34,.46,1.34,1.12c0,.42-.26,.59-.79,.59h-1.46c.07,.58,.4,.78,1.09,.78,.26,0,.61-.02,.85-.05Zm-.44-1.12c.16,0,.23-.04,.23-.19,0-.46-.28-.73-.83-.73s-.91,.26-.91,.92h1.51Z"/><path class="cls-5" d="M98.01,41.43c0,.65,.32,.97,1.07,.97,.27,0,.52-.02,.8-.05,.05,0,.08,.02,.08,.06v.21s-.03,.06-.07,.07c-.25,.06-.59,.1-.88,.1-1.04,0-1.51-.54-1.51-1.35v-.19c0-.81,.47-1.35,1.51-1.35,.29,0,.62,.05,.85,.1,.04,.01,.07,.03,.07,.07v.21s-.02,.07-.08,.06c-.25-.03-.5-.05-.77-.05-.74,0-1.07,.32-1.07,.97v.15Z"/><path class="cls-5" d="M101.81,42.67s-.03,.08-.08,.08h-.35c-.05,0-.08-.03-.08-.08v-3.79s.03-.08,.08-.08h.35c.05,0,.08,.03,.08,.08v1.18c.25-.09,.61-.15,.94-.15,.7,0,1.18,.28,1.18,1.06v1.71s-.03,.08-.08,.08h-.35c-.05,0-.08-.03-.08-.08v-1.66c0-.51-.22-.71-.86-.71-.26,0-.52,.01-.74,.04v2.33Z"/><path class="cls-5" d="M108.13,41.44c0,.89-.53,1.35-1.43,1.35s-1.43-.46-1.43-1.35v-.18c0-.89,.53-1.35,1.43-1.35s1.43,.46,1.43,1.35v.18Zm-.52-.03v-.13c0-.62-.25-.98-.91-.98s-.91,.37-.91,.98v.13c0,.62,.25,.98,.91,.98s.91-.37,.91-.98Z"/><path class="cls-5" d="M112.49,43.08c0,.42-.17,.75-.7,.75-.13,0-.32-.03-.48-.06-.07-.02-.09-.04-.09-.09v-.19s.02-.08,.09-.07c.08,.01,.19,.02,.28,.02,.29,0,.39-.1,.39-.38v-3.03s.03-.08,.08-.08h.35c.05,0,.08,.03,.08,.08v3.06Zm.04-4.09c0,.11-.03,.26-.07,.39-.02,.07-.05,.1-.11,.1h-.28c-.05,0-.08-.03-.08-.08v-.45s.03-.08,.08-.08h.38c.05,0,.08,.03,.08,.08v.03Z"/><path class="cls-5" d="M116.22,40.03s.03-.08,.08-.08h.35c.05,0,.08,.03,.08,.08v2.39c0,.15-.05,.22-.17,.25-.33,.09-.71,.12-1.15,.12-.93,0-1.31-.33-1.31-1.06v-1.71s.03-.08,.08-.08h.35c.05,0,.08,.03,.08,.08v1.66c0,.51,.22,.71,.86,.71,.27,0,.5-.02,.74-.06v-2.31Z"/><path class="cls-5" d="M120.59,42.34c.07-.01,.1,.01,.1,.06v.21s-.03,.06-.07,.07c-.28,.07-.64,.1-.95,.1-1.05,0-1.55-.49-1.55-1.42v-.12c0-.89,.54-1.35,1.43-1.35s1.34,.46,1.34,1.12c0,.42-.26,.59-.79,.59h-1.46c.07,.58,.4,.78,1.09,.78,.26,0,.61-.02,.85-.05Zm-.44-1.12c.16,0,.23-.04,.23-.19,0-.46-.28-.73-.83-.73s-.91,.26-.91,.92h1.51Z"/><path class="cls-5" d="M124.83,42.78c0,.74-.35,1.05-1.31,1.05-.31,0-.72-.03-1-.1-.04-.01-.07-.03-.07-.07v-.21c0-.05,.03-.08,.1-.06,.25,.03,.56,.05,.9,.05,.69,0,.86-.24,.86-.7v-.14c-.25,.1-.56,.15-.9,.15-.81,0-1.33-.5-1.33-1.28v-.17c0-.79,.49-1.39,1.56-1.39,.34,0,.7,.04,1.01,.12,.12,.03,.17,.1,.17,.25v2.49Zm-.52-2.41c-.2-.05-.4-.06-.62-.06-.67,0-1.09,.37-1.09,1.03v.1c0,.66,.37,.92,1.06,.92,.22,0,.47-.01,.65-.03v-1.96Z"/><path class="cls-5" d="M129.06,41.44c0,.89-.53,1.35-1.43,1.35s-1.43-.46-1.43-1.35v-.18c0-.89,.53-1.35,1.43-1.35s1.43,.46,1.43,1.35v.18Zm-.52-.03v-.13c0-.62-.25-.98-.91-.98s-.91,.37-.91,.98v.13c0,.62,.25,.98,.91,.98s.91-.37,.91-.98Z"/><path class="cls-5" d="M131.83,41.24c.41,.15,.69,.41,.69,.77,0,.51-.47,.78-1.1,.78-.36,0-.77-.03-1.06-.1-.04-.01-.07-.03-.07-.07v-.21c0-.05,.03-.08,.1-.06,.29,.04,.67,.05,1.01,.05,.37,0,.6-.12,.6-.38,0-.17-.14-.32-.39-.42l-.63-.23c-.41-.15-.69-.36-.69-.72,0-.51,.44-.73,1.07-.73,.32,0,.62,.03,.92,.1,.04,.01,.07,.03,.07,.07v.21c0,.05-.03,.08-.1,.06-.24-.03-.58-.05-.88-.05-.37,0-.57,.08-.57,.33,0,.17,.14,.28,.39,.37l.63,.23Z"/></g><g><g><path class="cls-5" d="M24.24,44.07c-4.81,2.31-8.06,2.75-10.22,1.98,2.11,3.1,5.96,3.82,13.19-1.28,1.93-1.46,7.04-6.51,10.57-12.76-4.63,6.18-11.23,10.85-13.54,12.05Z"/><path class="cls-5" d="M11.04,24.18c-.3-4.95-5.56-11.15-4.31-15.63-.52,.32-.97,.66-1.34,1.04C.33,14.84,9.41,21.39,10.81,27.33c.01,.06,.03,.13,.04,.19,.15-1.35,.24-2.5,.19-3.34Z"/><path class="cls-4" d="M41.02,16.79c1.22,5.07-.56,10.49-3.24,15.23,2.98-3.97,5.15-8.57,4.84-13.28C41.84,6.7,15.8,.74,8.72,5.8c-1.09,.8-1.71,1.73-1.99,2.75,7.94-4.88,31.64-2.79,34.29,8.24Z"/><path class="cls-4" d="M14.02,46.06c-3.18-4.67-2.39-14.76-3.17-18.54-.68,6.21-2.53,16.53,3.17,18.54Z"/><path class="cls-1" d="M24.24,44.07c2.31-1.21,8.91-5.87,13.54-12.05,2.68-4.74,4.45-10.17,3.24-15.23C38.37,5.76,14.67,3.67,6.73,8.55c-1.25,4.48,4.01,10.68,4.31,15.63,.05,.83-.04,1.99-.19,3.34,.78,3.78,0,13.87,3.17,18.54,2.16,.76,5.41,.33,10.22-1.98Z"/></g><g><path d="M30.92,26.12c-.06-1.8-1.59-3.21-3.42-3.15-1.83,.06-3.27,1.56-3.21,3.36s1.59,3.21,3.42,3.15,3.27-1.56,3.21-3.36Z"/><g><path d="M25.87,14.51l-.42-1.44c-.13-.46-.62-.72-1.09-.59l-1.74,.49c-.46,.13-.73,.61-.6,1.06l.42,1.44,2.2,1.19,1.21-2.16Z"/><path d="M23.63,19.46l.42,1.44c.13,.46,.62,.72,1.09,.59l1.74-.49c.46-.13,.73-.61,.6-1.06l-.42-1.44-2.2-1.19-1.21,2.16Z"/><path d="M27.27,18.08l1.46-.42c.46-.13,.73-.61,.6-1.07l-.5-1.7c-.13-.46-.62-.72-1.09-.59l-1.46,.42-1.21,2.16,2.2,1.19Z"/><path d="M22.23,15.88l-1.46,.42c-.46,.13-.73,.61-.6,1.07l.5,1.7c.13,.46,.62,.72,1.09,.59l1.46-.42,1.21-2.16-2.2-1.19Z"/></g></g></g></g></g></g></svg>