<?xml version="1.0" encoding="UTF-8"?><svg id="Layer_2" xmlns="http://www.w3.org/2000/svg" viewBox="0 0 196.03 37.72"><defs><style>.cls-1{fill:#2c608c;}.cls-2{fill:#a52b1f;}.cls-3{fill:#bb3927;}</style></defs><g id="Layer_1-2"><g><path class="cls-3" d="M20.79,20.79l-3.17,7.96-3.17-7.96v3.59l-4.33,.74-1.32,7.74c1.14,.66,2.36,1.2,3.64,1.6l.92-7.5h.04l3.4,8.25c.28,.02,.55,.02,.82,.02h0c.28,0,.55,0,.82-.02l3.4-8.25h.04l.92,7.5c1.28-.4,2.5-.94,3.64-1.6l-1.32-7.74-4.33-.74v-3.59"/><path class="cls-3" d="M14.44,14.44l3.17-7.96,3.17,7.96v-3.59l4.33-.74,1.32-7.73c-1.13-.66-2.35-1.21-3.64-1.6l-.92,7.49h-.04L18.44,.02c-.27,0-.55-.02-.82-.02h0c-.27,0-.55,0-.82,.02l-3.4,8.25h-.04l-.92-7.49c-1.28,.39-2.5,.94-3.64,1.6l1.32,7.73,4.33,.74v3.59Z"/><path class="cls-3" d="M14.44,20.79l-7.97-3.17,7.97-3.18h-3.59l-.73-4.33-7.73-1.31c-.67,1.13-1.2,2.35-1.6,3.64l7.49,.92v.03L.02,16.79c-.01,.27-.02,.55-.02,.83s0,.55,.02,.82l8.25,3.4v.04l-7.49,.93c.4,1.28,.94,2.5,1.6,3.64l7.73-1.32,.73-4.33h3.59Z"/><path class="cls-3" d="M35.21,16.79l-8.25-3.4v-.03l7.49-.92c-.4-1.29-.94-2.51-1.6-3.64l-7.73,1.31-.74,4.33h-3.59l7.97,3.18h0l-7.96,3.17h3.59l.74,4.33,7.73,1.32c.66-1.14,1.21-2.36,1.6-3.64l-7.49-.93v-.04l8.25-3.4c.01-.27,.02-.55,.02-.82s0-.56-.02-.83"/><polygon class="cls-2" points="14.44 20.79 10.85 20.79 10.12 25.12 14.44 24.38 14.44 20.79"/><polygon class="cls-2" points="14.44 14.44 14.44 10.85 10.12 10.11 10.85 14.44 14.44 14.44"/><polygon class="cls-2" points="20.79 20.79 20.79 24.38 25.12 25.12 24.38 20.79 20.79 20.79"/><polygon class="cls-2" points="20.79 14.44 24.38 14.44 25.12 10.11 20.79 10.85 20.79 14.44"/><path class="cls-1" d="M61.3,27.19c.58,.58,.88,1.3,.88,2.12v8.41h-4.32v-8.56h-4.09v8.56h-4.34v-8.56h-4.1v8.56h-4.31v-11.41h18.19c.82,0,1.52,.29,2.11,.87"/><path class="cls-1" d="M88.7,37.72h-4.45v-11.41h13.19c.84,0,1.57,.29,2.17,.87,.61,.58,.92,1.29,.92,2.12v1.34c0,.67-.22,1.28-.64,1.82-.43,.53-1.15,.87-2.18,1.03l3.23,4.22h-4.73l-4.43-6.75h4.29v-1.91h-7.37v8.66"/><path class="cls-1" d="M69.21,34.08v3.64h-4.35l.04-2.99v-8.39h2.99l8.02-.02,2.67,.02c.82,0,1.52,.29,2.11,.87,.59,.58,.88,1.29,.88,2.12v5.4l-.04,2.99h-4.28v-3.64h-8.05Zm2.57-2.42h5.49v-2.49h-8.05v2.49h2.57Z"/><path class="cls-1" d="M141.62,29.06v-2.73h13.63c.78,0,1.46,.29,2.01,.87,.56,.58,.84,1.29,.84,2.12v.75c0,.67-.22,1.22-.66,1.66,.44,.46,.66,1.01,.66,1.66v1.34c0,.83-.28,1.54-.84,2.12-.56,.58-1.23,.87-2.01,.87h-13.63v-8.66Zm11.98,4.01h-7.98v1.91h7.98v-1.91Zm0-4.06h-7.98v1.91h7.98v-1.91Z"/><path class="cls-1" d="M138.05,27.21c.59,.58,.89,1.29,.89,2.12v5.4c0,.83-.3,1.54-.89,2.12-.59,.58-1.31,.87-2.16,.87h-10.71c-.83,0-1.54-.29-2.13-.87-.59-.58-.88-1.29-.88-2.12v-5.4c0-.83,.3-1.54,.88-2.12,.59-.58,1.3-.87,2.13-.87h10.71c.85,0,1.56,.29,2.16,.87m-3.44,1.96h-8.13v5.72h8.13v-5.72Z"/><path class="cls-1" d="M107.93,34.88h7.25l4.26-.02,.05,2.85h-12.88c-.82,0-1.52-.29-2.11-.88-.59-.58-.88-1.29-.88-2.12v-5.4c0-.83,.29-1.54,.88-2.12,.59-.58,1.29-.87,2.11-.87h12.88l-.05,2.84h-11.51v5.72Z"/><path class="cls-1" d="M165.24,37.72h-4.45v-11.41h13.19c.84,0,1.57,.29,2.17,.87,.61,.58,.92,1.29,.92,2.12v1.34c0,.67-.22,1.28-.64,1.82-.43,.53-1.15,.87-2.18,1.03l3.23,4.22h-4.73l-4.43-6.75h4.29v-1.91h-7.37v8.66"/><path class="cls-1" d="M184.47,34.88h7.25l4.26-.02,.05,2.85h-12.88c-.82,0-1.52-.29-2.11-.88-.59-.58-.88-1.29-.88-2.12v-5.4c0-.83,.29-1.54,.88-2.12,.59-.58,1.29-.87,2.11-.87h12.88l-.05,2.84h-11.51v5.72Z"/><rect class="cls-1" x="184.33" y="30.61" width="11.65" height="2.84"/></g></g></svg>